<svg id="Grupo_71" data-name="Grupo 71" xmlns="http://www.w3.org/2000/svg" width="58.56" height="33.908" viewBox="0 0 58.56 33.908">
  <path id="Caminho_1" data-name="Caminho 1" d="M37.293,30c.506,3.351,6.573,5.72,6.79,7.829.171,1.656-3.724,5.6-4.173,7.995a4.026,4.026,0,0,0,5.054,4.8c2.757-.731,6.435-5.957,8.043-8.327.912-1.344,2.548-3.632,2.876-5.162a2.532,2.532,0,0,0-.321-2.17C54.386,32.734,46.443,27,43.974,25.89a6.448,6.448,0,0,0-2.622-.581c-2.474,0-4.523,1.615-4.059,4.692" transform="translate(-25.555 -17.374)" fill="#f57139"/>
  <path id="Caminho_2" data-name="Caminho 2" d="M5.742,55.405A10.586,10.586,0,0,0,.951,58.619,3.641,3.641,0,0,0,0,60.779v0c0,.884.594,1.653,1.768,2.406,2.781,1.784,6.846,2.448,9.346-.176,3.4-3.57.177-7.8-3.876-7.8a5.878,5.878,0,0,0-1.5.194" transform="translate(0 -37.901)" fill="#f57139"/>
  <path id="Caminho_3" data-name="Caminho 3" d="M107.737,0a10.167,10.167,0,0,0-1.8.169L92.345,1.711c-.818.1-1.4.143-1.744.228A3.481,3.481,0,0,0,87.52,3.7c-2.968,4.555,4.971,8.847,7.525,11.648a7.424,7.424,0,0,1,1.1,1.55,2.881,2.881,0,0,1,.023,1.714C95.1,21.691,89.6,26.488,89.632,29.776c.032,3.069,2.213,4.485,4.571,4.057.315-.017.753-.077,1.333-.138l3.043-.345,10.927-1.24c3.75-.154,7.592-2.446,8.451-6.287a8.935,8.935,0,0,0-2.084-8.015,7.984,7.984,0,0,0-1.528-1.216c-.385-.272-.951-.577-1.046-.984l-.006-.034c.076-.926,1.225-1.424,1.852-2.571a9.134,9.134,0,0,0,.943-7.071C115.066,1.957,111.455.017,107.833,0Z" transform="translate(-59.631)" fill="#f57139"/>
</svg>
