<?xml version="1.0" encoding="UTF-8"?>
<svg id="Layer_1" data-name="Layer 1" xmlns="http://www.w3.org/2000/svg" xmlns:xlink="http://www.w3.org/1999/xlink" viewBox="0 0 151.73 221.22">
  <defs>
    <style>
      .cls-1 {
        fill: url(#linear-gradient-2);
      }

      .cls-2 {
        fill: url(#linear-gradient-3);
      }

      .cls-3 {
        fill: #5c65ab;
      }

      .cls-4 {
        fill: url(#linear-gradient);
      }
    </style>
    <linearGradient id="linear-gradient" x1="7.65" y1="63.89" x2="124.53" y2="26.11" gradientUnits="userSpaceOnUse">
      <stop offset="0" stop-color="#ee7a19"/>
      <stop offset=".32" stop-color="#e84c4a"/>
      <stop offset=".72" stop-color="#ea5ec8"/>
      <stop offset="1" stop-color="#696beb"/>
    </linearGradient>
    <linearGradient id="linear-gradient-2" x1="6.43" y1="60.13" x2="123.31" y2="22.34" xlink:href="#linear-gradient"/>
    <linearGradient id="linear-gradient-3" x1="10.42" y1="72.47" x2="127.3" y2="34.68" xlink:href="#linear-gradient"/>
  </defs>
  <g>
    <path class="cls-4" d="M71.58,61.17c-3.77,5.56-12.4,17.82-18.87,19.54-7.24,1.92-13.22-3.99-11.86-11.27,1.05-5.62,10.19-14.87,9.79-18.76-.51-4.95-14.74-10.51-15.93-18.37-1.46-9.71,7.73-13.21,15.67-9.64,5.79,2.6,24.43,16.06,27.19,21.3,1.06,2.01,1.24,2.84.75,5.09-.77,3.59-4.61,8.96-6.75,12.11Z"/>
    <path class="cls-1" d="M20.64,43.76c10.96-2.88,21.55,8.46,12.61,17.85-5.87,6.16-15.4,4.6-21.93.41-4.77-3.06-5.45-6.23-1.92-10.72,2.44-3.1,7.43-6.54,11.24-7.54Z"/>
    <path class="cls-2" d="M139.12,44.47c-1.04-1.12-2.32-2.04-3.58-2.85-.9-.64-2.23-1.35-2.45-2.31v-.08c.16-2.17,2.86-3.34,4.33-6.03,2.97-4.68,3.71-11.1,2.21-16.59-2.82-10.96-14.04-15.33-23.82-13.52-6.63.75-23.65,2.68-31.89,3.62-1.92.24-3.28.34-4.09.53-2.73-.02-5.25,1.1-7.23,4.13-6.96,10.69,11.66,20.76,17.66,27.33.76.84,1.94,2.32,2.57,3.64.45,1.33.4,2.05.05,4.02-2.49,7.22-15.41,18.48-15.33,26.19.08,7.2,5.19,10.52,10.72,9.52.74-.04,1.77-.18,3.13-.32,1.92-.22,4.39-.5,7.14-.81,8.77-1,20.34-2.31,25.64-2.91,8.8-.36,17.81-5.74,19.83-14.75,1.59-6.56-.34-13.95-4.89-18.8Z"/>
  </g>
  <g>
    <path class="cls-3" d="M25.27,138.99v-23.91c0-2.35,1.28-3.63,3.63-3.63h7.72c10.51,0,13.32,4.14,13.32,8.52,0,3.93-2.29,6.25-4.79,6.89,2.7.63,5.65,2.86,5.65,7.01,0,4.42-2.65,8.74-13.58,8.74h-8.31c-2.35,0-3.63-1.28-3.63-3.63ZM40.96,121.21c0-1.88-1.01-2.84-4.28-2.84h-2.86v5.96h2.9c3.16,0,4.24-1.17,4.24-3.11ZM41.88,132.69c0-2-1.02-3.14-4.5-3.14h-3.55v6.22h3.52c3.41,0,4.53-1.18,4.53-3.08Z"/>
    <path class="cls-3" d="M55.37,138.99v-23.91c0-2.35,1.28-3.63,3.63-3.63h1.49c2.35,0,3.63,1.28,3.63,3.63v23.91c0,2.35-1.28,3.63-3.63,3.63h-1.49c-2.35,0-3.63-1.28-3.63-3.63Z"/>
    <path class="cls-3" d="M91.72,142.62h-1.63c-2.08,0-3.29-.9-4.18-2.81l-3.15-6.66c-.35.01-.71.02-1.07.02h-2.6v5.81c0,2.35-1.28,3.63-3.63,3.63h-1.53c-2.35,0-3.63-1.28-3.63-3.63v-23.91c0-2.35,1.28-3.63,3.63-3.63h7.93c10.54,0,13.48,3.98,13.48,10.67,0,3.8-1.44,7.12-4.86,9.1l3.85,7.1c1.5,2.77.72,4.29-2.62,4.29ZM86.56,122.84c0-2.66-1.29-4.13-4.91-4.13h-2.6v8.31h2.6c3.62,0,4.91-1.46,4.91-4.18Z"/>
    <path class="cls-3" d="M99.67,128.25v-13.17c0-2.35,1.28-3.63,3.63-3.63h1.49c2.35,0,3.63,1.28,3.63,3.63v13.12c0,5,1.34,7.06,4.71,7.06s4.75-2.07,4.75-7.02v-13.17c0-2.35,1.28-3.63,3.63-3.63h1.55c2.35,0,3.63,1.28,3.63,3.63v13.22c0,9.97-4.48,14.62-13.55,14.62s-13.46-4.58-13.46-14.68Z"/>
    <path class="cls-3" d="M15.07,179.42v-19.83h-3.1c-2.35,0-3.63-1.28-3.63-3.63v-.45c0-2.35,1.28-3.63,3.63-3.63h14.86c2.35,0,3.63,1.28,3.63,3.63v.45c0,2.35-1.28,3.63-3.63,3.63h-3.05v19.83c0,2.35-1.28,3.63-3.63,3.63h-1.46c-2.35,0-3.63-1.28-3.63-3.63Z"/>
    <path class="cls-3" d="M34.55,179.42v-23.91c0-2.35,1.28-3.63,3.63-3.63h1.49c2.35,0,3.63,1.28,3.63,3.63v23.91c0,2.35-1.28,3.63-3.63,3.63h-1.49c-2.35,0-3.63-1.28-3.63-3.63Z"/>
    <path class="cls-3" d="M49.49,179.42v-23.91c0-2.35,1.28-3.63,3.63-3.63h1.88c1.99,0,3.31.76,4.37,2.48l9.06,14.79v-13.64c0-2.35,1.28-3.63,3.63-3.63h1.46c2.35,0,3.63,1.28,3.63,3.63v23.91c0,2.35-1.28,3.63-3.63,3.63h-1.86c-1.99,0-3.31-.76-4.37-2.48l-9.06-14.8v13.66c0,2.35-1.28,3.63-3.63,3.63h-1.49c-2.35,0-3.63-1.28-3.63-3.63Z"/>
    <path class="cls-3" d="M83.33,179.42v-23.91c0-2.35,1.28-3.63,3.63-3.63h1.49c2.35,0,3.63,1.28,3.63,3.63v8.05h8.84v-8.05c0-2.35,1.28-3.63,3.63-3.63h1.49c2.35,0,3.63,1.28,3.63,3.63v23.91c0,2.35-1.28,3.63-3.63,3.63h-1.49c-2.35,0-3.63-1.28-3.63-3.63v-8.22h-8.84v8.22c0,2.35-1.28,3.63-3.63,3.63h-1.49c-2.35,0-3.63-1.28-3.63-3.63Z"/>
    <path class="cls-3" d="M140.17,183.05h-1.54c-2.12,0-3.43-.98-4.08-3.03l-.52-1.63h-11.1l-.51,1.63c-.64,2.05-1.96,3.03-4.08,3.03h-1.54c-2.66,0-3.83-1.69-2.9-4.17l9.03-24.08c.74-1.98,2.08-2.91,4.17-2.91h2.74c2.09,0,3.42.94,4.17,2.91l9.06,24.07c.94,2.49-.25,4.18-2.89,4.18ZM128.47,161.32l-3.55,10.96h7.13l-3.58-10.96Z"/>
  </g>
  <g>
    <path class="cls-3" d="M10.52,216.58v-11.88c0-1.17.63-1.8,1.8-1.8h6.15c1.17,0,1.8.63,1.8,1.8v.19c0,1.17-.63,1.8-1.8,1.8h-3.63v2.86h3.23c1.17,0,1.8.62,1.8,1.72v.02c0,1.12-.63,1.74-1.8,1.74h-3.23v3.55c0,1.17-.63,1.8-1.8,1.8h-.72c-1.17,0-1.8-.63-1.8-1.8Z"/>
    <path class="cls-3" d="M33.01,216.58v-11.88c0-1.17.63-1.8,1.8-1.8h.74c1.17,0,1.8.63,1.8,1.8v11.88c0,1.17-.63,1.8-1.8,1.8h-.74c-1.17,0-1.8-.63-1.8-1.8Z"/>
    <path class="cls-3" d="M51.12,216.58v-11.88c0-1.17.63-1.8,1.8-1.8h.74c1.17,0,1.8.63,1.8,1.8v9.87h3.07c1.17,0,1.8.63,1.8,1.8v.21c0,1.17-.63,1.8-1.8,1.8h-5.61c-1.17,0-1.8-.63-1.8-1.8Z"/>
    <path class="cls-3" d="M72.39,216.46l1.69-11.9c.16-1.1.81-1.66,1.92-1.66h2.02c1.07,0,1.72.52,1.99,1.56l2.48,9.39,2.48-9.39c.28-1.04.92-1.56,1.99-1.56h2.01c1.11,0,1.76.56,1.92,1.66l1.69,11.9c.18,1.23-.45,1.92-1.67,1.92h-.72c-1.11,0-1.75-.59-1.9-1.69l-1.08-8.14-2.29,8.28c-.28,1.03-.93,1.55-2.01,1.55h-.88c-1.08,0-1.72-.52-2.01-1.55l-2.29-8.28-1.08,8.14c-.15,1.11-.79,1.69-1.9,1.69h-.72c-1.23,0-1.85-.69-1.67-1.92Z"/>
    <path class="cls-3" d="M105.71,216.58v-11.88c0-1.17.63-1.8,1.8-1.8h6.8c1.17,0,1.8.63,1.8,1.8v.22c0,1.17-.63,1.8-1.8,1.8h-4.27v2.3h3.88c1.17,0,1.8.56,1.8,1.57v.02c0,1.02-.63,1.58-1.8,1.58h-3.88v2.38h4.27c1.17,0,1.8.63,1.8,1.8v.21c0,1.17-.63,1.8-1.8,1.8h-6.8c-1.17,0-1.8-.63-1.8-1.8Z"/>
    <path class="cls-3" d="M128.98,215.9c-.67-1.07-.28-1.96.87-2.27l.34-.09c.97-.26,1.56.05,2.15.66.7.73,1.56,1.11,2.56,1.11,1.18,0,1.91-.5,1.91-1.32,0-2.35-7.95-.97-7.95-6.61,0-2.81,2.39-4.63,5.86-4.63,2.59,0,4.72.81,5.7,2.34.79,1.23.45,2.12-.85,2.38l-.35.07c-1.34.27-1.79-.32-2.46-.87-.55-.46-1.14-.7-1.88-.7-1.07,0-1.76.49-1.76,1.25,0,2.7,8.07.96,8.07,6.57,0,2.88-2.62,4.74-6.26,4.74-2.54,0-4.93-.98-5.96-2.63Z"/>
  </g>
</svg>