<?xml version="1.0" encoding="UTF-8"?>
<svg id="Layer_1" data-name="Layer 1" xmlns="http://www.w3.org/2000/svg" viewBox="0 0 151.73 86.75">
  <defs>
    <style>
      .cls-1 {
        fill: #fff;
      }
    </style>
  </defs>
  <g>
    <path class="cls-1" d="M71.58,61.17c-3.77,5.56-12.4,17.82-18.87,19.54-7.24,1.92-13.22-3.99-11.86-11.27,1.05-5.62,10.19-14.87,9.79-18.76-.51-4.95-14.74-10.51-15.93-18.37-1.46-9.71,7.73-13.21,15.67-9.64,5.79,2.6,24.43,16.06,27.19,21.3,1.06,2.01,1.24,2.84.75,5.09-.77,3.59-4.61,8.96-6.75,12.11h.01Z"/>
    <path class="cls-1" d="M20.64,43.76c10.96-2.88,21.55,8.46,12.61,17.85-5.87,6.16-15.4,4.6-21.93.41-4.77-3.06-5.45-6.23-1.92-10.72,2.44-3.1,7.43-6.54,11.24-7.54Z"/>
  </g>
  <path class="cls-1" d="M139.12,44.47c-1.04-1.12-2.32-2.04-3.58-2.85-.9-.64-2.23-1.35-2.45-2.31v-.08c.16-2.17,2.86-3.34,4.33-6.03,2.97-4.68,3.71-11.1,2.21-16.59-2.82-10.96-14.04-15.33-23.82-13.52-6.63.75-23.65,2.68-31.89,3.62-1.92.24-3.28.34-4.09.53-2.73-.02-5.25,1.1-7.23,4.13-6.96,10.69,11.66,20.76,17.66,27.33.76.84,1.94,2.32,2.57,3.64.45,1.33.4,2.05.05,4.02-2.49,7.22-15.41,18.48-15.33,26.19.08,7.2,5.19,10.52,10.72,9.52.74-.04,1.77-.18,3.13-.32,1.92-.22,4.39-.5,7.14-.81,8.77-1,20.34-2.31,25.64-2.91,8.8-.36,17.81-5.74,19.83-14.75,1.59-6.56-.34-13.95-4.89-18.8h0Z"/>
</svg>