<svg xmlns="http://www.w3.org/2000/svg" width="1101.386" height="637.741" viewBox="0 0 1101.386 637.741">
  <g id="Grupo_69" data-name="Grupo 69" transform="translate(-229.954 -1680)" opacity="0.2">
    <g id="Grupo_23" data-name="Grupo 23" transform="translate(486.734 609.5)">
      <path id="Caminho_1" data-name="Caminho 1" d="M38.47,113.556c9.512,63.02,123.617,107.577,127.709,147.24,3.214,31.147-70.049,105.3-78.488,150.365-10.915,58.3,37.044,105.72,95.064,90.317,51.857-13.758,121.028-112.035,151.279-156.616,17.16-25.274,47.918-68.316,54.092-97.087C392,229.7,390.6,223.1,382.088,206.963c-22.137-42-171.535-149.887-217.961-170.727a121.274,121.274,0,0,0-49.322-10.927c-46.526,0-85.069,30.369-76.335,88.247" transform="translate(-74.482 1194.436)" fill="#fff"/>
      <path id="Caminho_2" data-name="Caminho 2" d="M107.99,58.867C77.444,66.9,37.4,94.484,17.879,119.316,5.938,134.5.006,147.8,0,159.934v.047c.012,16.635,11.163,31.094,33.253,45.259,52.311,33.559,128.753,46.043,175.787-3.308,63.993-67.142,3.32-146.727-72.9-146.721a110.549,110.549,0,0,0-28.152,3.656" transform="translate(-256.78 1340.862)" fill="#fff"/>
      <path id="Caminho_3" data-name="Caminho 3" d="M479.412,0a191.213,191.213,0,0,0-33.848,3.173C392.433,9.2,256.008,24.684,189.922,32.185c-15.379,1.916-26.294,2.683-32.81,4.281C135.258,36.29,115,45.294,99.18,69.577c-55.826,85.676,93.5,166.393,141.537,219.07,6.139,6.722,15.532,18.611,20.639,29.154,3.633,10.7,3.184,16.435.425,32.244C241.814,407.959,138.247,498.188,138.9,560.028c.608,57.725,41.626,84.355,85.965,76.306,5.92-.312,14.164-1.456,25.068-2.595,15.349-1.745,35.187-3.992,57.235-6.493,70.3-7.978,163.079-18.51,205.507-23.322,70.533-2.9,142.787-46.008,158.945-118.245,12.725-52.618-2.76-111.835-39.191-150.742-8.344-8.94-18.575-16.317-28.736-22.862-7.247-5.113-17.891-10.85-19.666-18.51l-.118-.649c1.433-17.408,23.039-26.778,34.833-48.355,23.823-37.5,29.744-88.978,17.744-132.987C617.264,36.814,549.332.324,481.211,0Z" transform="translate(168.592 1070.5)" fill="#fff"/>
    </g>
  </g>
</svg>
