<svg id="Grupo_77" data-name="Grupo 77" xmlns="http://www.w3.org/2000/svg" xmlns:xlink="http://www.w3.org/1999/xlink" width="63.105" height="85.661" viewBox="0 0 63.105 85.661">
  <defs>
    <clipPath id="clip-path">
      <path id="Caminho_1" data-name="Caminho 1" d="M37.449,41.087c1.7,11.268,22.1,19.234,22.833,26.325C60.858,72.981,47.759,86.239,46.25,94.3c-1.952,10.424,6.623,18.9,17,16.148,9.272-2.46,21.639-20.031,27.048-28,3.068-4.519,8.567-12.214,9.671-17.358.693-3.233.442-4.411-1.08-7.3-3.958-7.509-30.669-26.8-38.97-30.525A21.683,21.683,0,0,0,51.1,25.309c-8.319,0-15.21,5.43-13.648,15.778" transform="translate(-37.227 -25.309)" fill="none"/>
    </clipPath>
  </defs>
  <g id="Grupo_1" data-name="Grupo 1" clip-path="url(#clip-path)">
    <rect id="Retângulo_3" data-name="Retângulo 3" width="93.193" height="105.855" transform="translate(-32.104 12.565) rotate(-22.216)" fill="#fff"/>
  </g>
</svg>
