<svg xmlns="http://www.w3.org/2000/svg" xmlns:xlink="http://www.w3.org/1999/xlink" width="195.341" height="112.778" viewBox="0 0 195.341 112.778">
  <defs>
    <clipPath id="clip-path">
      <path id="Caminho_1" data-name="Caminho 1" d="M37.449,41.087c1.7,11.268,22.1,19.234,22.833,26.325C60.858,72.981,47.759,86.239,46.25,94.3c-1.952,10.424,6.623,18.9,17,16.148,9.272-2.46,21.639-20.031,27.048-28,3.068-4.519,8.567-12.214,9.671-17.358.693-3.233.442-4.411-1.08-7.3-3.958-7.509-30.669-26.8-38.97-30.525A21.683,21.683,0,0,0,51.1,25.309c-8.319,0-15.21,5.43-13.648,15.778" transform="translate(-37.227 -25.309)" fill="none"/>
    </clipPath>
    <clipPath id="clip-path-2">
      <rect id="Ret창ngulo_76" data-name="Ret창ngulo 76" width="116.503" height="57.219" fill="#fff"/>
    </clipPath>
  </defs>
  <g id="Grupo_76" data-name="Grupo 76" transform="translate(-1128 -329.922)">
    <g id="Grupo_33" data-name="Grupo 33" transform="translate(1234.744 351.505) rotate(-20)">
      <g id="Grupo_1" data-name="Grupo 1" clip-path="url(#clip-path)">
        <rect id="Ret창ngulo_3" data-name="Ret창ngulo 3" width="93.193" height="105.855" transform="translate(-32.104 12.565) rotate(-22.216)" fill="#fff"/>
      </g>
    </g>
    <g id="Grupo_75" data-name="Grupo 75" transform="translate(1128 385.481)">
      <g id="Grupo_74" data-name="Grupo 74" transform="translate(0 -0.001)" clip-path="url(#clip-path-2)">
        <path id="Caminho_44" data-name="Caminho 44" d="M5.706,18.7.267,4.576C-.508,2.555.44,1.212,2.6,1.212H3.729A3.125,3.125,0,0,1,7.023,3.639l3.066,9.546,2.92-9.529A3.093,3.093,0,0,1,16.243,1.19h.033a3.1,3.1,0,0,1,3.24,2.465l2.942,9.529L25.5,3.639A3.117,3.117,0,0,1,28.79,1.212h1.181c2.162,0,3.093,1.371,2.313,3.386L26.807,18.7A3.272,3.272,0,0,1,23.47,21H22.056a3.1,3.1,0,0,1-3.272-2.46l-2.525-8.57-2.519,8.57A3.1,3.1,0,0,1,10.463,21H9.054a3.256,3.256,0,0,1-3.348-2.3" transform="translate(-0.002 5.26)" fill="#fff"/>
        <path id="Caminho_45" data-name="Caminho 45" d="M6.331,11.306c0-6.468,3.256-10.163,8.224-10.163,2.405,0,4.914,1.208,5.818,3.3l-.005-.379c-.038-1.8,1.078-2.66,2.925-2.66h.888A2.619,2.619,0,0,1,27.1,4.318V18.257a2.621,2.621,0,0,1-2.92,2.915h-.888c-1.82,0-2.963-.829-2.925-2.557l.005-.325c-.894,2.026-3.413,3.2-5.808,3.2-4.941,0-8.235-3.733-8.235-10.185M20.6,11.279c0-2.925-1.506-4.789-3.776-4.789-2.232,0-3.781,1.874-3.781,4.789,0,2.953,1.522,4.827,3.8,4.827,2.259,0,3.754-1.864,3.754-4.827" transform="translate(27.967 5.052)" fill="#fff"/>
        <path id="Caminho_46" data-name="Caminho 46" d="M13.369,16.679v-6.9h-.531c-1.387,0-2.151-.981-2.151-2.525,0-1.609.775-2.487,2.118-2.487h.563V3.688c0-1.755.775-2.573,2.823-3.007l.731-.157c2.367-.5,3.213.32,3.213,2.443v1.8h2.059c2.124,0,2.915.878,2.915,2.487,0,1.636-.791,2.525-2.915,2.525H20.135v6.4c0,2.411.829,3.386,2.7,3.516,1.436.146,2.346.84,2.378,2.292a2.536,2.536,0,0,1-2.546,2.855,9.143,9.143,0,0,1-.986.06c-5.688,0-8.316-2.21-8.316-8.224" transform="translate(47.21 1.684)" fill="#fff"/>
        <path id="Caminho_47" data-name="Caminho 47" d="M13.634,11.305A9.725,9.725,0,0,1,23.77,1.142c4.464,0,7.563,1.717,8.847,4.583.769,1.707.157,2.99-1.772,3.272l-.444.07A2.987,2.987,0,0,1,27.286,7.86a4.154,4.154,0,0,0-3.158-1.344c-2.265,0-3.765,1.891-3.765,4.789,0,2.882,1.5,4.773,3.765,4.773a4.464,4.464,0,0,0,3.131-1.333c1.029-.948,1.544-1.43,3.11-1.208l.4.06c1.972.282,2.579,1.549,1.858,3.234-1.246,2.882-4.415,4.637-8.858,4.637A9.728,9.728,0,0,1,13.634,11.305" transform="translate(60.228 5.048)" fill="#fff"/>
        <path id="Caminho_48" data-name="Caminho 48" d="M17.844,23.339V2.92A2.626,2.626,0,0,1,20.759,0h.894a2.634,2.634,0,0,1,2.925,2.92V9.172a6.242,6.242,0,0,1,5.737-3.115c4.61,0,7.357,2.194,7.357,9.134v8.148a2.625,2.625,0,0,1-2.92,2.92h-.894a2.625,2.625,0,0,1-2.92-2.92V15.857c0-3.126-1.018-4.188-3.2-4.188-2.129,0-3.164,1.192-3.164,4.334v7.335a2.629,2.629,0,0,1-2.925,2.92h-.894a2.621,2.621,0,0,1-2.915-2.92" transform="translate(78.826 0.003)" fill="#fff"/>
        <path id="Caminho_49" data-name="Caminho 49" d="M13.061,9.748l-.054.493c-.19,1.772-1.224,2.286-2.958,2.687-1.977.46-3.077,1.95-3.077,5.017v5.927a2.623,2.623,0,0,1-2.92,2.92H3.163a2.623,2.623,0,0,1-2.92-2.92V9.9a2.625,2.625,0,0,1,2.92-2.92h.888c1.9,0,2.92.823,2.92,2.617a4.2,4.2,0,0,1,3.976-2.768c1.663,0,2.319.883,2.113,2.92" transform="translate(1.073 30.165)" fill="#fff"/>
        <path id="Caminho_50" data-name="Caminho 50" d="M2.824,16.973c0-6.1,4.2-10.163,10.315-10.163,5.775,0,9.47,3.2,9.952,8.652.173,1.95-.818,2.92-2.92,2.92H9.553a3.875,3.875,0,0,0,4.161,4.171,5.183,5.183,0,0,0,3.4-1.165,2.943,2.943,0,0,1,3-.8l.536.125c1.972.471,2.248,1.582.926,3.158-1.663,1.988-4.518,3.267-8.278,3.267-6.333,0-10.467-3.944-10.467-10.163m10.5-5.9a3.524,3.524,0,0,0-3.7,3.451h7.341a3.466,3.466,0,0,0-3.641-3.451" transform="translate(12.475 30.086)" fill="#fff"/>
        <path id="Caminho_51" data-name="Caminho 51" d="M7.1,16.973c0-6.1,4.2-10.163,10.315-10.163,5.775,0,9.47,3.2,9.952,8.652.173,1.95-.818,2.92-2.92,2.92H13.834a3.875,3.875,0,0,0,4.161,4.171,5.183,5.183,0,0,0,3.4-1.165,2.943,2.943,0,0,1,3-.8l.536.125c1.972.471,2.248,1.582.926,3.158-1.663,1.988-4.518,3.267-8.278,3.267C11.239,27.136,7.1,23.192,7.1,16.973m10.5-5.9a3.524,3.524,0,0,0-3.7,3.451H21.25a3.466,3.466,0,0,0-3.641-3.451" transform="translate(31.386 30.086)" fill="#fff"/>
        <path id="Caminho_52" data-name="Caminho 52" d="M11.512,29.006V8.587a2.63,2.63,0,0,1,2.92-2.92h.926a2.627,2.627,0,0,1,2.92,2.92V29.006a2.623,2.623,0,0,1-2.92,2.92h-.926a2.625,2.625,0,0,1-2.92-2.92" transform="translate(50.854 25.037)" fill="#fff"/>
      </g>
    </g>
  </g>
</svg>
